<?xml version="1.0" standalone="no"?>
<!DOCTYPE svg PUBLIC "-//W3C//DTD SVG 20010904//EN"
 "http://www.w3.org/TR/2001/REC-SVG-20010904/DTD/svg10.dtd">
<svg version="1.0" xmlns="http://www.w3.org/2000/svg"
 width="2716.000000pt" height="832.000000pt" viewBox="0 0 2716.000000 832.000000"
 preserveAspectRatio="xMidYMid meet">

<g transform="translate(0.000000,832.000000) scale(0.100000,-0.100000)"
fill="#000000" stroke="none">
<path d="M0 4160 l0 -4160 13580 0 13580 0 0 4160 0 4160 -13580 0 -13580 0 0
-4160z m18051 3913 c23 -59 -11 -225 -112 -553 -21 -69 -45 -161 -53 -205 -18
-96 -19 -102 -89 -330 -30 -99 -60 -205 -67 -235 -7 -30 -23 -91 -37 -135 -13
-44 -33 -120 -43 -170 -17 -86 -40 -185 -81 -345 -11 -41 -33 -136 -50 -210
-38 -171 -112 -489 -149 -645 -16 -66 -36 -156 -44 -200 -9 -44 -20 -96 -26
-115 -6 -19 -24 -97 -41 -174 -16 -76 -40 -178 -54 -225 -13 -47 -29 -122 -36
-166 -6 -44 -24 -125 -39 -180 -16 -55 -34 -149 -40 -210 -7 -60 -25 -164 -42
-230 -16 -66 -36 -168 -44 -228 -8 -60 -25 -148 -39 -195 -14 -48 -31 -150
-40 -227 -8 -77 -24 -178 -35 -225 -12 -47 -30 -139 -41 -205 -11 -66 -31
-158 -44 -205 -13 -47 -27 -121 -30 -165 -8 -89 -29 -209 -50 -270 -7 -22 -20
-92 -29 -155 -20 -139 -29 -184 -68 -320 -25 -90 -46 -136 -123 -275 -36 -65
-86 -119 -144 -156 -75 -47 -89 -46 -154 9 -48 41 -76 79 -97 132 -7 19 -19
42 -26 50 -7 8 -22 53 -34 100 -31 124 -40 150 -54 150 -9 0 -15 21 -19 63
-31 335 -30 329 -56 354 -13 13 -20 40 -25 98 -14 159 -37 306 -55 352 -18 48
-29 134 -56 458 -8 94 -24 220 -36 280 -18 92 -22 165 -28 455 -4 190 -11 354
-16 366 -6 11 -27 40 -47 64 -34 39 -43 44 -90 47 -46 4 -59 0 -100 -26 -55
-35 -129 -125 -163 -199 -14 -29 -25 -55 -25 -57 0 -2 -11 -21 -25 -41 -14
-20 -32 -58 -40 -83 -28 -90 -86 -247 -110 -296 -14 -27 -47 -111 -75 -185
-28 -74 -68 -173 -89 -220 -21 -47 -44 -101 -51 -120 -7 -19 -19 -42 -25 -50
-6 -8 -42 -75 -79 -149 -37 -74 -79 -151 -92 -170 -13 -20 -24 -40 -24 -45 0
-20 -93 -136 -156 -195 -87 -82 -137 -104 -219 -99 -45 3 -73 11 -97 27 -101
70 -108 129 -88 761 20 627 26 723 45 761 19 36 17 -4 45 929 6 190 17 388 24
440 8 52 19 127 24 165 6 39 18 333 27 655 17 648 26 793 51 841 9 18 24 56
34 84 22 63 93 165 137 195 59 40 149 62 263 63 113 1 132 -5 185 -54 l30 -29
-1 -157 c0 -93 -7 -201 -17 -263 -8 -58 -21 -233 -27 -390 -11 -277 -24 -406
-54 -540 -8 -36 -19 -162 -25 -280 -13 -242 -23 -337 -52 -460 -10 -47 -26
-166 -33 -265 -8 -99 -24 -227 -36 -285 -24 -123 -50 -363 -50 -470 0 -41 -5
-124 -11 -184 -12 -115 -1 -203 28 -227 20 -17 81 -3 107 23 13 13 40 36 60
52 38 28 91 100 134 179 12 23 32 55 43 70 35 47 139 236 139 251 0 8 9 21 19
28 11 8 25 27 32 43 7 17 33 60 56 96 24 36 43 71 43 78 0 6 14 25 30 43 17
17 30 35 30 40 0 5 8 21 19 36 30 45 55 83 81 127 46 78 85 138 107 165 13 15
32 47 43 71 10 24 44 78 74 119 31 41 65 93 77 115 42 77 143 174 182 175 27
0 93 -36 115 -64 10 -14 27 -58 37 -98 9 -40 34 -107 56 -148 88 -171 98 -228
104 -590 7 -352 11 -423 30 -490 9 -30 21 -71 26 -90 5 -19 16 -99 24 -176 11
-108 19 -150 35 -177 23 -39 35 -45 95 -48 65 -4 83 7 96 54 6 23 24 83 40
133 16 51 36 143 44 205 19 147 23 166 48 214 12 24 27 92 38 174 10 74 30
168 44 210 14 42 31 110 36 151 6 41 20 100 31 130 30 81 48 150 48 185 0 54
48 290 70 346 12 30 30 74 39 99 10 25 28 106 40 180 13 74 32 160 43 190 22
61 39 125 58 215 7 33 23 87 36 120 12 33 30 96 39 140 9 44 25 100 36 125 10
25 30 93 44 153 13 59 32 122 41 139 9 17 27 73 41 122 13 50 32 107 42 126
10 20 26 69 35 109 9 40 28 96 42 124 15 28 33 73 41 101 13 49 41 120 98 256
15 36 40 99 55 140 28 75 67 162 123 275 16 33 38 87 48 120 10 33 37 104 60
158 37 83 46 97 66 97 16 0 27 -8 34 -27z m8366 -679 c48 -37 81 -84 92 -134
24 -103 7 -351 -31 -450 -11 -30 -31 -82 -43 -115 -32 -87 -113 -245 -146
-285 -16 -19 -29 -40 -29 -47 0 -27 -49 -13 -73 20 -33 44 -37 58 -52 176 -16
130 -24 140 -99 124 -61 -13 -94 -33 -195 -118 -210 -178 -340 -293 -377 -332
-23 -23 -45 -43 -50 -43 -5 0 -36 -25 -69 -56 -33 -30 -114 -102 -180 -160
-66 -57 -135 -119 -154 -137 -19 -17 -45 -39 -59 -48 -25 -17 -121 -104 -288
-259 -101 -94 -262 -260 -276 -285 -6 -9 6 -18 39 -29 82 -28 156 -21 433 45
91 21 188 44 215 50 28 6 77 19 110 29 33 10 78 21 100 25 22 3 103 21 180 40
77 18 163 36 190 39 236 29 317 35 430 36 152 0 296 -14 369 -35 74 -22 171
-89 256 -176 35 -36 108 -182 125 -252 18 -70 21 -406 4 -507 -5 -36 -32 -132
-58 -215 -66 -206 -109 -308 -194 -468 -28 -52 -103 -174 -124 -203 -13 -17
-23 -36 -23 -41 0 -6 -40 -61 -90 -122 -49 -61 -90 -113 -90 -116 0 -11 -182
-222 -305 -354 -93 -100 -459 -467 -560 -561 -109 -102 -154 -139 -197 -161
-20 -10 -39 -23 -43 -29 -9 -15 -145 -115 -190 -140 -22 -12 -47 -27 -55 -34
-8 -6 -33 -20 -55 -31 -22 -11 -56 -30 -75 -42 -39 -25 -103 -45 -195 -63 -33
-6 -85 -18 -115 -27 -30 -9 -88 -17 -130 -17 -71 -1 -79 1 -138 38 -80 50
-147 145 -163 233 -17 88 -6 587 15 686 18 90 28 111 60 132 28 19 72 11 85
-14 5 -9 21 -50 35 -90 21 -60 26 -94 26 -170 1 -104 11 -176 28 -193 16 -16
151 -22 212 -9 86 18 250 102 397 202 23 16 52 33 65 39 13 5 49 29 80 52 156
116 234 177 277 214 26 22 65 53 87 69 196 146 767 736 805 833 5 12 15 25 24
28 8 3 29 34 46 67 17 34 42 74 55 90 13 16 24 35 24 42 0 8 12 29 28 47 51
61 112 157 128 200 8 23 25 61 38 83 44 74 106 229 106 264 0 48 -48 88 -151
129 -95 37 -158 48 -344 57 -171 8 -461 -16 -542 -45 -70 -26 -68 -25 -221
-50 -67 -11 -137 -27 -154 -36 -17 -9 -82 -27 -145 -40 -64 -13 -124 -31 -137
-42 -13 -10 -50 -24 -83 -31 -32 -7 -92 -24 -133 -38 -193 -65 -469 -90 -648
-58 -95 16 -95 16 -157 73 -57 53 -74 99 -82 214 -8 124 24 325 57 363 10 11
28 48 39 83 20 58 76 149 140 229 14 17 42 53 61 79 19 26 71 88 115 138 102
117 795 807 869 866 31 25 94 77 140 115 46 39 101 84 122 101 21 18 73 62
114 99 69 62 152 125 164 125 2 0 52 35 109 78 58 42 120 86 138 97 91 54 117
70 154 95 41 27 181 86 225 93 38 7 72 -2 107 -29z m-20222 -65 c215 -41 265
-54 320 -81 88 -44 180 -122 241 -205 16 -21 35 -44 41 -51 7 -7 26 -41 41
-75 16 -34 45 -96 64 -137 20 -41 45 -99 57 -127 68 -166 68 -590 0 -783 -16
-47 -33 -98 -38 -115 -7 -28 -21 -58 -96 -215 -39 -83 -108 -206 -126 -227 -9
-10 -24 -33 -33 -51 -9 -18 -40 -67 -69 -108 -29 -41 -65 -97 -82 -123 -69
-110 -271 -338 -530 -596 -98 -98 -236 -250 -304 -335 -57 -72 -111 -185 -111
-235 0 -46 57 -207 91 -255 10 -14 35 -59 57 -100 71 -136 103 -194 112 -205
5 -6 19 -37 31 -70 12 -33 33 -79 46 -102 12 -23 34 -70 47 -105 44 -114 106
-262 125 -298 10 -19 24 -53 31 -75 7 -22 21 -53 30 -70 9 -16 27 -57 40 -90
13 -33 31 -71 40 -85 9 -14 25 -47 35 -75 10 -27 32 -79 50 -115 63 -124 113
-235 135 -300 12 -36 26 -70 31 -75 13 -17 129 -251 129 -261 0 -10 81 -171
110 -219 10 -16 33 -59 52 -95 104 -198 158 -278 220 -331 45 -38 58 -43 107
-46 101 -7 134 29 158 167 14 82 14 107 3 191 -15 113 -8 253 15 320 20 56 41
155 50 239 13 114 31 194 57 245 14 28 29 65 33 82 8 39 48 73 85 73 33 0 50
-32 50 -98 0 -26 7 -87 15 -137 8 -49 15 -135 15 -191 0 -133 18 -310 36 -354
23 -53 37 -447 24 -631 -11 -149 -22 -210 -59 -338 -28 -94 -34 -105 -106
-190 -51 -59 -73 -77 -145 -112 -101 -49 -118 -48 -250 6 -118 50 -202 128
-269 255 -14 25 -61 92 -106 150 -45 58 -92 123 -104 145 -12 22 -49 81 -84
132 -58 86 -153 234 -232 363 -19 30 -47 81 -63 112 -16 31 -38 69 -49 85 -26
36 -133 254 -133 270 0 6 -10 24 -23 40 -13 15 -32 51 -42 78 -10 28 -33 80
-52 116 -18 37 -33 73 -33 81 0 8 -13 34 -28 59 -15 24 -34 64 -41 89 -7 25
-26 71 -42 102 -16 31 -40 85 -53 120 -13 35 -35 85 -50 112 -14 27 -26 55
-26 63 0 8 -15 42 -34 76 -18 34 -37 75 -41 92 -3 16 -17 52 -30 80 -13 27
-35 85 -49 128 -14 43 -34 90 -44 105 -11 15 -25 45 -32 67 -7 22 -24 62 -37
89 -14 27 -36 82 -49 123 -27 82 -92 208 -137 265 -32 41 -70 58 -128 58 -51
0 -91 -35 -128 -114 -54 -115 -68 -190 -91 -477 -5 -70 -21 -185 -34 -255 -14
-71 -30 -192 -36 -269 -13 -167 -23 -223 -50 -275 -11 -22 -29 -58 -40 -80
-24 -48 -92 -94 -124 -86 -11 3 -34 19 -51 34 -39 36 -120 169 -137 224 -10
33 -13 177 -13 633 0 325 -2 597 -3 605 -4 26 -85 127 -127 158 -63 45 -166
154 -163 171 4 23 66 51 111 51 137 0 258 46 306 115 23 34 25 46 50 276 7 60
20 116 35 150 17 40 26 81 31 154 3 58 21 161 41 243 19 79 37 178 40 220 4
42 19 131 35 197 15 66 33 163 39 215 17 151 39 292 50 330 6 19 20 80 31 135
24 113 33 133 84 196 72 87 174 122 287 99 88 -17 111 -33 148 -108 29 -59 33
-74 33 -156 0 -56 -8 -127 -20 -186 -12 -52 -26 -135 -33 -185 -6 -49 -24
-142 -40 -205 -16 -63 -33 -155 -39 -205 -6 -49 -26 -162 -45 -250 -19 -88
-38 -182 -42 -210 -4 -27 -20 -90 -36 -140 -30 -92 -48 -263 -34 -320 11 -43
60 -65 147 -65 132 0 161 18 405 248 265 249 562 568 629 676 26 42 102 147
143 198 17 22 32 46 32 54 0 7 16 39 36 70 19 30 40 70 46 87 6 18 16 39 23
47 19 23 36 59 61 125 12 33 31 83 42 110 12 28 36 97 54 155 32 101 33 111
33 270 0 159 -2 171 -39 319 -37 145 -42 157 -86 210 -140 168 -248 248 -352
261 -35 4 -101 18 -148 30 -91 23 -198 23 -305 0 -27 -6 -123 -19 -212 -30
-124 -14 -174 -24 -215 -43 -29 -13 -78 -32 -108 -40 -30 -9 -70 -27 -89 -41
-18 -14 -56 -30 -85 -36 -28 -6 -67 -21 -86 -34 -19 -12 -51 -31 -71 -40 -20
-9 -46 -26 -57 -36 -51 -48 -84 -60 -168 -60 -108 0 -118 10 -79 83 55 103
149 176 380 296 28 14 70 38 95 53 25 15 70 32 100 39 30 6 82 23 115 37 51
21 198 54 410 92 65 12 372 4 450 -11z m5706 -23 c26 -18 43 -42 60 -83 12
-32 31 -69 41 -83 14 -19 21 -58 29 -145 12 -139 7 -202 -26 -317 -13 -46 -29
-128 -35 -183 -6 -55 -25 -154 -40 -220 -16 -66 -34 -165 -40 -220 -6 -55 -24
-158 -40 -230 -15 -71 -33 -182 -40 -245 -7 -63 -25 -172 -41 -241 -26 -113
-29 -150 -35 -365 -7 -277 -19 -355 -68 -434 -58 -94 -81 -160 -152 -440 -15
-63 -34 -284 -34 -412 0 -106 -24 -296 -50 -400 -11 -42 -20 -102 -20 -132 0
-52 3 -59 35 -89 19 -17 35 -36 35 -42 0 -5 14 -26 31 -45 17 -19 44 -64 61
-99 28 -60 29 -71 25 -150 -9 -156 -61 -321 -155 -496 -9 -16 -35 -51 -60 -76
-24 -26 -54 -61 -67 -78 -12 -18 -53 -52 -89 -77 -87 -58 -128 -60 -186 -8
-119 107 -147 266 -137 769 7 332 19 481 48 567 21 64 34 153 45 298 7 113 27
229 48 287 24 67 41 269 26 322 -13 48 -98 143 -145 161 -37 14 -100 12 -165
-5 -30 -7 -92 -23 -138 -34 -112 -28 -154 -50 -276 -144 -81 -62 -119 -114
-184 -249 -34 -70 -62 -132 -62 -138 0 -6 -13 -36 -29 -68 -15 -31 -34 -75
-41 -97 -17 -51 -107 -242 -131 -277 -11 -14 -19 -31 -19 -36 0 -6 -44 -102
-99 -214 -54 -112 -115 -239 -136 -283 -21 -44 -71 -148 -111 -231 -41 -84
-74 -157 -74 -163 0 -24 -99 -158 -157 -213 -70 -66 -104 -79 -135 -52 -18 17
-20 27 -16 104 4 65 11 97 31 135 27 53 62 126 129 264 22 47 72 148 109 225
38 76 69 143 69 150 0 6 7 25 16 41 40 73 64 126 64 142 0 10 15 42 34 73 19
30 39 73 45 95 6 22 23 61 39 86 16 25 34 61 41 81 6 19 24 55 39 79 15 24 34
60 42 79 8 19 25 53 39 75 29 47 40 146 22 212 -18 65 -51 76 -251 83 -135 6
-173 10 -211 27 -65 29 -89 58 -89 109 0 48 9 58 70 74 25 6 62 25 82 41 21
16 49 29 65 29 15 0 71 11 123 25 52 14 122 32 155 40 89 23 123 34 202 71 40
19 77 34 82 34 23 0 134 105 188 178 32 42 91 142 130 222 40 80 79 156 87
170 8 14 26 50 41 80 15 30 33 62 39 70 7 8 20 36 30 62 9 26 30 66 46 90 16
24 30 50 30 58 0 8 15 38 33 65 19 28 60 102 92 165 31 63 81 156 111 205 29
50 69 122 89 160 77 152 111 212 133 239 12 16 22 35 22 42 0 8 16 39 36 70
20 31 40 71 45 88 5 17 24 54 43 83 19 29 38 62 41 74 4 11 18 37 31 56 13 19
32 58 43 87 11 29 30 69 43 88 33 51 79 124 108 173 54 91 131 175 190 209 57
33 105 33 151 2z m9858 -3 c14 -11 35 -38 46 -59 11 -21 26 -45 32 -52 33 -34
48 -125 48 -282 0 -134 -4 -170 -27 -265 -15 -60 -36 -164 -47 -231 -11 -66
-31 -168 -45 -225 -14 -57 -30 -156 -37 -219 -6 -63 -24 -164 -39 -225 -15
-60 -33 -164 -40 -230 -6 -66 -23 -194 -37 -285 -15 -96 -29 -239 -33 -340 -8
-205 -21 -264 -85 -375 -54 -95 -70 -144 -84 -252 -6 -45 -19 -108 -31 -139
-29 -85 -48 -236 -55 -449 -6 -201 -19 -370 -36 -496 l-11 -76 35 -54 c19 -30
43 -61 52 -69 9 -8 36 -41 58 -75 l41 -60 0 -95 c0 -81 -5 -109 -32 -185 -18
-49 -32 -96 -32 -104 0 -45 -184 -351 -212 -351 -4 0 -16 -13 -26 -29 -10 -17
-48 -50 -85 -75 -87 -60 -129 -62 -187 -10 -54 49 -105 149 -122 237 -9 52
-13 179 -13 457 0 407 5 471 50 645 13 51 26 138 30 200 4 72 16 148 35 220
21 77 34 161 44 281 14 166 11 228 -11 269 -18 31 -75 83 -106 94 -51 20 -156
13 -237 -14 -41 -14 -100 -30 -131 -35 -66 -13 -183 -83 -252 -151 -54 -52
-143 -171 -153 -202 -4 -12 -15 -33 -24 -47 -10 -14 -32 -68 -50 -120 -17 -52
-44 -122 -59 -155 -16 -33 -31 -72 -34 -86 -4 -14 -15 -36 -26 -48 -11 -13
-28 -44 -37 -70 -10 -25 -35 -76 -56 -113 -21 -36 -38 -73 -38 -81 0 -8 -10
-30 -22 -49 -35 -52 -58 -95 -58 -106 0 -6 -18 -49 -40 -96 -22 -47 -40 -89
-40 -94 0 -4 -13 -28 -28 -53 -15 -24 -34 -60 -42 -79 -8 -19 -28 -60 -46 -90
-17 -30 -35 -66 -39 -80 -12 -40 -95 -210 -132 -270 -42 -67 -136 -156 -181
-171 -28 -9 -36 -8 -54 8 -18 16 -20 27 -16 106 3 71 8 92 26 115 23 27 46 74
103 207 32 74 60 133 184 389 42 88 86 182 97 210 11 28 26 58 33 66 8 9 29
47 46 85 17 39 39 81 49 95 10 14 21 41 25 60 4 19 22 64 41 100 107 211 130
285 118 374 -13 97 -59 116 -281 116 l-152 0 -48 40 c-99 82 -96 74 -53 124
39 44 178 113 256 127 32 5 93 21 134 34 41 13 98 29 125 35 28 6 88 27 135
46 47 20 94 39 105 43 44 18 148 117 205 196 33 46 60 88 60 93 0 5 18 41 40
78 22 38 40 76 40 85 0 9 18 44 40 78 22 34 40 67 40 74 0 7 18 43 40 81 22
37 40 71 40 74 0 3 20 39 44 81 25 42 69 121 98 177 29 55 71 134 94 175 39
71 54 99 91 172 77 150 107 206 128 233 14 18 25 40 25 49 0 9 11 31 24 48 13
18 38 59 54 92 61 121 103 200 116 215 7 8 43 78 80 155 38 77 76 149 86 160
9 11 22 34 28 51 5 17 23 50 38 74 16 23 38 57 49 74 22 35 91 127 127 168 13
15 43 39 68 53 53 30 116 29 159 -2z"/>
<path d="M11238 5961 c-20 -4 -44 -14 -53 -21 -29 -24 -101 -142 -181 -296
-42 -82 -93 -178 -113 -214 -20 -36 -52 -94 -69 -130 -18 -36 -39 -76 -47 -90
-8 -14 -27 -52 -43 -85 -16 -33 -49 -98 -72 -145 -54 -107 -61 -156 -29 -193
33 -37 119 -57 244 -57 191 1 243 27 306 154 30 61 48 117 64 198 13 62 31
133 40 158 9 25 26 96 36 158 11 62 29 136 41 165 17 43 22 79 26 209 l4 157
-33 20 c-35 22 -58 24 -121 12z"/>
<path d="M21050 5939 c-36 -22 -107 -125 -170 -249 -18 -36 -45 -87 -60 -115
-32 -57 -163 -313 -252 -490 -59 -117 -61 -123 -66 -215 l-4 -96 43 -19 c35
-16 66 -20 178 -20 164 0 201 7 245 46 62 54 95 118 116 225 11 55 30 132 44
171 14 40 28 94 31 120 16 114 36 205 51 228 19 29 38 230 32 339 -5 83 -18
96 -97 96 -38 0 -67 -7 -91 -21z"/>
</g>
</svg>
